<svg width="17" height="18" viewBox="0 0 17 18" fill="none" xmlns="http://www.w3.org/2000/svg">
<g id="Bag">
<path id="Path_33955" fill-rule="evenodd" clip-rule="evenodd" d="M11.7615 16.9166H4.80495C2.24965 16.9166 0.289314 15.9936 0.84614 12.2789L1.4945 7.24457C1.83775 5.39102 3.02005 4.68164 4.05743 4.68164H12.5395C13.5921 4.68164 14.7058 5.44442 15.1024 7.24457L15.7508 12.2789C16.2237 15.5741 14.3168 16.9166 11.7615 16.9166Z" stroke="#130F26" stroke-width="1.5" stroke-linecap="round" stroke-linejoin="round"/>
<path id="Path_33956" d="M11.8758 4.49877C11.8758 2.51038 10.2639 0.89847 8.27547 0.89847V0.89847C7.31797 0.894413 6.3983 1.27194 5.71981 1.94757C5.04131 2.62319 4.6599 3.54127 4.65991 4.49877H4.65991" stroke="#130F26" stroke-width="1.5" stroke-linecap="round" stroke-linejoin="round"/>
<path id="Line_192" d="M10.7469 8.25151H10.7088" stroke="#130F26" stroke-width="1.5" stroke-linecap="round" stroke-linejoin="round"/>
<path id="Line_193" d="M5.88801 8.25151H5.84987" stroke="#130F26" stroke-width="1.5" stroke-linecap="round" stroke-linejoin="round"/>
</g>
</svg>
