<svg width="45" height="44" viewBox="0 0 45 44" fill="none" xmlns="http://www.w3.org/2000/svg">
<g id="Graph">
<path id="Path" d="M18.5076 8.0369C18.6179 8.26151 18.6908 8.50205 18.7234 8.74933L19.3267 17.7191L19.6262 22.2276C19.6293 22.6912 19.702 23.1519 19.842 23.5947C20.2037 24.4538 21.0738 24.9998 22.0204 24.9618L36.4445 24.0183C37.0691 24.008 37.6723 24.2416 38.1213 24.6677C38.4955 25.0228 38.737 25.4873 38.8131 25.9869L38.8387 26.2903C38.2418 34.5555 32.1714 41.4493 23.9234 43.2289C15.6753 45.0085 7.2173 41.2492 3.14147 33.9922C1.96643 31.8839 1.2325 29.5665 0.982756 27.176C0.878424 26.4684 0.832484 25.7537 0.845383 25.0388C0.832502 16.1775 7.14278 8.51667 15.976 6.66982C17.0391 6.50428 18.0813 7.06709 18.5076 8.0369Z" fill="#97A5EB"/>
<path id="Path_2" opacity="0.4" d="M24.3948 0.335271C34.2746 0.58662 42.5782 7.69104 44.1765 17.2601L44.1612 17.3307L44.1176 17.4334L44.1237 17.7153C44.1011 18.0887 43.9569 18.448 43.7084 18.7382C43.4496 19.0405 43.096 19.2464 42.7066 19.3263L42.4691 19.3589L25.8274 20.4371C25.2739 20.4917 24.7227 20.3132 24.3111 19.9461C23.968 19.6401 23.7487 19.227 23.6868 18.782L22.5698 2.16446C22.5503 2.10827 22.5503 2.04736 22.5698 1.99117C22.585 1.53312 22.7866 1.10015 23.1296 0.788994C23.4725 0.477839 23.9282 0.314429 24.3948 0.335271Z" fill="#FFCC91"/>
</g>
</svg>
