<svg width="18" height="19" viewBox="0 0 18 19" fill="none" xmlns="http://www.w3.org/2000/svg">
<g id="Graph">
<path id="Stroke 1" fill-rule="evenodd" clip-rule="evenodd" d="M13.3981 10.5745C13.9604 10.5745 14.4323 11.0386 14.3463 11.5938C13.8419 14.8605 11.0455 17.2859 7.67264 17.2859C3.94107 17.2859 0.916504 14.2614 0.916504 10.5307C0.916504 7.45699 3.25159 4.59383 5.88054 3.94646C6.44545 3.80699 7.0244 4.20436 7.0244 4.78593C7.0244 8.72629 7.15685 9.74558 7.9051 10.3C8.65335 10.8544 9.53317 10.5745 13.3981 10.5745Z" stroke="#5570F1" stroke-width="1.5" stroke-linecap="round" stroke-linejoin="round"/>
<path id="Stroke 3" fill-rule="evenodd" clip-rule="evenodd" d="M17.0768 7.293C17.1215 4.76142 14.0119 0.680718 10.2224 0.750893C9.92766 0.756156 9.6917 1.00177 9.67854 1.29563C9.58293 3.37721 9.71187 6.07458 9.7838 7.29738C9.80573 7.67809 10.1049 7.97721 10.4847 7.99914C11.7417 8.07107 14.5373 8.16931 16.5891 7.85879C16.868 7.81668 17.0724 7.57458 17.0768 7.293Z" stroke="#5570F1" stroke-width="1.5" stroke-linecap="round" stroke-linejoin="round"/>
</g>
</svg>
