<svg width="16" height="18" viewBox="0 0 16 18" fill="none" xmlns="http://www.w3.org/2000/svg">
<g id="Notification">
<path id="Fill 1" d="M14.4744 8.70428C13.8657 7.99341 13.5891 7.37738 13.5891 6.3308V5.97495C13.5891 4.61112 13.2752 3.73239 12.5927 2.85367C11.5409 1.489 9.77015 0.666504 8.03669 0.666504H7.96298C6.26596 0.666504 4.55072 1.45123 3.48067 2.76051C2.76095 3.65686 2.41061 4.57335 2.41061 5.97495V6.3308C2.41061 7.37738 2.15221 7.99341 1.52524 8.70428C1.06393 9.22799 0.916504 9.9011 0.916504 10.6296C0.916504 11.3589 1.15586 12.0497 1.63623 12.6111C2.26319 13.2842 3.14855 13.7139 4.05296 13.7886C5.36238 13.938 6.67179 13.9943 8.00025 13.9943C9.32788 13.9943 10.6373 13.9003 11.9475 13.7886C12.8511 13.7139 13.7365 13.2842 14.3634 12.6111C14.843 12.0497 15.0832 11.3589 15.0832 10.6296C15.0832 9.9011 14.9357 9.22799 14.4744 8.70428Z" fill="#5570F1"/>
<path id="Fill 4" opacity="0.4" d="M9.67396 15.0233C9.25737 14.9343 6.71888 14.9343 6.30229 15.0233C5.94616 15.1055 5.56104 15.2969 5.56104 15.7165C5.58174 16.1168 5.81613 16.4702 6.14079 16.6943L6.13996 16.6951C6.55987 17.0224 7.05266 17.2306 7.56864 17.3053C7.8436 17.343 8.12354 17.3414 8.40845 17.3053C8.9236 17.2306 9.41639 17.0224 9.8363 16.6951L9.83547 16.6943C10.1601 16.4702 10.3945 16.1168 10.4152 15.7165C10.4152 15.2969 10.0301 15.1055 9.67396 15.0233Z" fill="#5570F1"/>
</g>
</svg>
